<svg xmlns="http://www.w3.org/2000/svg" viewBox="0 0 100 100"><defs><radialGradient id="bs" cx="38%" cy="32%" r="75%"><stop offset="0%" stop-color="#ffffff"/><stop offset="55%" stop-color="#f4f4f2"/><stop offset="85%" stop-color="#d2d2cf"/><stop offset="100%" stop-color="#a8a8a4"/></radialGradient><radialGradient id="bh" cx="36%" cy="28%" r="30%"><stop offset="0%" stop-color="#ffffff" stop-opacity="0.9"/><stop offset="100%" stop-color="#ffffff" stop-opacity="0"/></radialGradient></defs><circle cx="50" cy="50" r="46" fill="url(#bs)" stroke="#3a3a38" stroke-width="1.4"/><g fill="#1c1c1c"><polygon points="50,34 61,42 57,55 43,55 39,42"/><polygon points="50,8 57,15 50,20 43,15"/><polygon points="14,38 24,34 30,42 24,50 16,48"/><polygon points="86,38 76,34 70,42 76,50 84,48"/><polygon points="30,78 38,70 47,74 45,84 35,86"/><polygon points="70,78 62,70 53,74 55,84 65,86"/></g><g stroke="#5a5a58" stroke-width="0.9" fill="none" opacity="0.55"><line x1="50" y1="20" x2="50" y2="34"/><line x1="30" y1="42" x2="39" y2="42"/><line x1="70" y1="42" x2="61" y2="42"/><line x1="43" y1="55" x2="38" y2="70"/><line x1="57" y1="55" x2="62" y2="70"/></g><ellipse cx="38" cy="30" rx="20" ry="14" fill="url(#bh)"/></svg>